<?xml version="1.0" encoding="UTF-8"?>
<svg id="Layer_1" data-name="Layer 1" xmlns="http://www.w3.org/2000/svg" viewBox="0 0 1080 1080">
  <defs>
    <style>
      .cls-1 {
        fill: #fe1919;
      }
    </style>
  </defs>
  <path class="cls-1" d="M225.19,297.04l106.8,92.11c1.81.61,3.53.31,5.34-.04,22.38-4.28,48.16-15.15,70.73-21.07,17.3-4.54,35.11-7.47,52.5-11.61,1.01.95-4.22,9.19-5.14,10.74-11.4,19.21-24.73,37.44-36.57,56.39-2.08,8.69,1.57,3.23,4.84,1.31,37.04-21.77,73.92-43.77,110.95-65.54,4.68-4.12,13.24-22.32,18.52-23.84,2.37-.68,5.19.06,7.73-.51,17.74-3.95,35.75-8.95,53.49-12.39,40.05-7.78,81.01-8.76,121.48-13.82l94.18-109.38,1.11-4.17-252.94,72.95c2.91-11.69-.52-25.7,1.25-36.98.33-2.08,1-4.29,3.13-5.11,12.1-1.29,24.17-3.44,36.22-4.96,16.12-2.03,31.99-3.45,48.08-4.87l44.92-6.85c14.37-17.35,26.02-36.8,38.83-55.3,10.26-14.81,23.16-30.04,32.27-45.41.88-1.49,1.44-2.65-.6-2.93l-118.22,50.02c-27.88,6.19-55.57,14.22-83.53,19.41l1.18-47.07c-4.04-.26-8.33.41-12.34-.01-13.86-1.45-28.91-7.03-40.97,2.6l-63.81,40.99c-2.32,3.7,6.16,17.41,6.31,22.01.07,2.03-1.05,2.4-2.73,2.68-29.78,1.59-58.37,8.56-88.29,8.28-43.97-.4-88.84-1.99-132.95-3.53-4.07-.14-11.32-3.89-8.04,2.39l116.6,75.01c40.76-9.65,80.81-22.92,121.73-31.91,1.23-.27,2.4-1.68,3.96-1.97,8.08-1.47,6.76,5.02,6.43,11.2-.64,11.91-2.64,23.94-3.58,35.83l-39.39,2.38c-23.5,2.14-47.16,5.71-70.62,7.03-50,2.82-111.75-16.17-162.64-20.87-1.1-.1-3.68-1.05-2.63,1.46,2.07,4.96,13.91,9.79,16.39,15.35Z"/>
  <path class="cls-1" d="M601.99,602.03c-84.07,23.4-167.98,47.36-251.75,71.81-7.6,2.22-19.56,3.8-26.44,6.51-1.35.53-3.3,1.99-3.86,3.27-.42.94.41,17.91.62,20.54.28,3.44,1.36,15.97,2.71,17.89l90.78,61.56c1.24-.8,1.51-1.59,1.76-2.97,1.08-5.86,7.52-44.5,9.41-45.89,1.47-.62,3.21-.49,4.62-1.26,32.87-17.96,66.62-34.2,99.34-52.45l76.08-38.63-106.68,116.35-87.44,85.48,2.91,2.96,100.62-7.09-50.59,134.14,176.47-206.54-2.87-2.92c-7.39,2.55-15.15,4.9-22.73,6.74-24.21,5.88-50.73,10.93-74.4,17.96l-2.83-2.27c0-.08.04-.16.02-.23,5.94-3.59,9.78-9.3,14.57-13.97,49.88-48.64,111.25-89.9,152.28-146,18.74-25.62,35.37-52.87,55.39-77.58l-1.22-3.54-156.79,56.15Z"/>
  <path class="cls-1" d="M688.81,469.4c.78-.88,2.84-1.54,3.53-2.96-.59-4.32-4.84-3.32-7.05-.57-116.15,33.46-230.64,73.63-346.89,106.69-1.36.39-8.07,1.95-8.42,1.57l9.99-143.56-85.24-53.6-64.14-22.91c-4.6,3.59,1.06,6.36,3.2,9.72,17.14,26.81,33.74,53.98,51.18,80.61,2.08,23.74,4.81,47.66,6.16,71.5,1.9,33.38-3.1,78.79-10.86,111.5-5.48,23.12-18.25,52.77-26.23,76.15-1.46,4.26-5.26,6.94-2.89,11.8l103.66-68.7,341.4-132.46c10.62-14.53,20.69-31.37,32.6-44.79Z"/>
  <path class="cls-1" d="M832.4,484.05c-1.27-43.29-2.23-86.57,6.16-129.05l19.66-77.41c-2.24-.24-4.16.66-6.15,1.49-36.19,15.05-72.89,40.78-109.39,56.51l-291.4,114.52c-18.36,14.89-37.62,29.52-55.49,44.53-1.3,1.09-10.62,8.91-9.35,10.06l365.89-100.02c1.26,8.39-1.57,16.17-2.33,24.15-1.49,15.59-2.15,31.37-3.57,47.03-.8,8.86-3.44,19.34-3.57,28.33-.03,1.73-.08,3.33,1.16,4.72l73.91,53.16c24.21,5.59,48.68,10.88,73.24,14.41-18.62-31.36-39.34-61.52-58.77-92.42Z"/>
</svg>